<svg width="512" height="512" viewBox="0 0 512 512" fill="none" xmlns="http://www.w3.org/2000/svg">
<rect width="512" height="512" rx="256" fill="#0A0A0F"/>
<path d="M256 390.375C254.993 390.375 253.992 390.21 253.038 389.888C233.175 383.275 134.125 345.038 134.125 242.113V168.5C134.122 166.338 134.868 164.242 136.235 162.567C137.602 160.893 139.506 159.743 141.625 159.313C180.009 153.107 217.149 140.779 251.625 122.8C252.98 122.126 254.467 121.761 255.98 121.731C257.493 121.7 258.994 122.006 260.375 122.625C294.747 140.802 331.877 153.197 370.275 159.313C372.394 159.743 374.298 160.893 375.665 162.567C377.032 164.242 377.778 166.338 377.775 168.5V242.113C377.775 345.038 278.725 383.275 258.863 389.888C257.94 390.2 256.974 390.364 256 390.375ZM152.875 176.15V242.113C152.875 327.913 233.1 362.863 256 371.075C278.9 362.863 359.125 327.913 359.125 242.113V176.15C323.262 169.841 288.558 158.151 256.188 141.475C223.671 158.12 188.849 169.807 152.875 176.15ZM250.275 287.625L300.275 237.625C301.982 235.856 302.926 233.488 302.903 231.03C302.881 228.571 301.894 226.221 300.155 224.483C298.416 222.746 296.064 221.761 293.606 221.741C291.148 221.721 288.78 222.667 287.013 224.375L243.65 267.738L225.275 249.375C223.508 247.667 221.14 246.721 218.682 246.741C216.224 246.761 213.872 247.746 212.133 249.483C210.394 251.221 209.407 253.571 209.384 256.03C209.362 258.488 210.306 260.856 212.013 262.625L237.013 287.625C237.883 288.496 238.917 289.187 240.055 289.659C241.193 290.13 242.412 290.373 243.644 290.373C244.875 290.373 246.095 290.13 247.233 289.659C248.371 289.187 249.404 288.496 250.275 287.625Z" fill="#00E676"/>
</svg>
