<svg width="512" height="512" viewBox="0 0 512 512" fill="none" xmlns="http://www.w3.org/2000/svg">
<rect width="512" height="512" fill="#0A0A0F"/>
<path d="M256 435.167C254.657 435.167 253.322 434.947 252.05 434.517C225.567 425.7 93.5 374.717 93.5 237.483V139.333C93.4963 136.451 94.4902 133.656 96.313 131.423C98.1358 129.19 100.675 127.657 103.5 127.083C154.679 118.809 204.198 102.372 250.167 78.4001C251.973 77.5013 253.956 77.0143 255.974 76.9739C257.991 76.9336 259.992 77.341 261.833 78.1668C307.663 102.402 357.169 118.929 408.367 127.083C411.191 127.657 413.731 129.19 415.554 131.423C417.376 133.656 418.37 136.451 418.367 139.333V237.483C418.367 374.717 286.3 425.7 259.817 434.517C258.587 434.933 257.299 435.152 256 435.167ZM118.5 149.533V237.483C118.5 351.883 225.467 398.483 256 409.433C286.533 398.483 393.5 351.883 393.5 237.483V149.533C345.683 141.122 299.411 125.535 256.25 103.3C212.895 125.493 166.465 141.076 118.5 149.533ZM248.367 298.167L315.033 231.5C317.309 229.141 318.568 225.983 318.538 222.706C318.508 219.428 317.192 216.294 314.873 213.977C312.554 211.661 309.418 210.348 306.141 210.321C302.863 210.294 299.706 211.555 297.35 213.833L239.533 271.65L215.033 247.167C212.677 244.889 209.52 243.627 206.242 243.654C202.965 243.681 199.829 244.994 197.51 247.311C195.192 249.627 193.876 252.762 193.846 256.039C193.816 259.317 195.074 262.475 197.35 264.833L230.683 298.167C231.844 299.328 233.223 300.25 234.74 300.878C236.257 301.507 237.883 301.831 239.525 301.831C241.167 301.831 242.793 301.507 244.31 300.878C245.827 300.25 247.206 299.328 248.367 298.167Z" fill="#00E676"/>
</svg>
